<?xml version="1.0" encoding="UTF-8" ?>
<!DOCTYPE svg PUBLIC "-//W3C//DTD SVG 1.1//EN" "http://www.w3.org/Graphics/SVG/1.1/DTD/svg11.dtd">
<svg width="640pt" height="640pt" viewBox="0 0 640 640" version="1.1" xmlns="http://www.w3.org/2000/svg">
<g id="#000000ff">
<path fill="#000000" opacity="1.00" d=" M 0.00 0.00 L 169.00 0.00 C 169.01 110.41 168.99 220.82 169.01 331.24 C 168.97 345.83 169.02 360.43 169.01 375.02 C 168.99 391.81 169.00 408.60 169.02 425.39 C 168.97 442.30 169.02 459.21 169.01 476.12 C 169.01 490.94 168.98 505.76 169.02 520.59 C 181.23 505.26 193.41 489.90 205.60 474.56 C 211.31 467.61 216.54 460.26 222.64 453.67 C 233.08 440.80 243.41 427.84 253.94 415.04 C 258.79 419.88 262.68 425.99 267.21 431.29 C 272.99 438.74 278.90 446.10 284.70 453.54 C 291.76 462.47 298.80 471.43 305.87 480.35 C 311.07 487.00 316.31 493.61 321.52 500.25 C 326.94 507.08 332.29 513.96 337.73 520.77 C 345.23 530.32 352.72 539.87 360.28 549.36 C 368.62 560.03 377.02 570.64 385.40 581.28 C 391.52 589.01 397.60 596.79 403.71 604.53 C 407.37 609.10 410.96 613.72 414.59 618.32 C 418.68 623.46 422.70 628.65 426.80 633.79 C 428.45 635.85 430.02 637.97 431.73 640.00 L 231.39 640.00 C 231.36 587.09 231.40 534.17 231.37 481.26 C 210.87 507.66 189.75 533.61 169.13 559.93 C 168.82 586.60 169.09 613.31 169.00 640.00 L 0.00 640.00 L 0.00 0.00 Z" />
<path fill="#000000" opacity="1.00" d=" M 231.38 0.00 L 640.00 0.00 L 640.00 640.00 L 521.76 640.00 C 501.60 614.61 481.60 589.10 461.52 563.65 C 449.43 548.34 437.37 533.00 425.28 517.68 C 414.06 503.45 402.85 489.21 391.62 474.98 C 374.51 453.29 357.44 431.56 340.29 409.89 C 328.42 394.77 316.53 379.66 304.58 364.60 C 303.85 363.89 303.35 363.06 303.09 362.13 C 353.79 296.28 404.10 230.11 456.61 165.68 C 439.39 165.86 422.16 165.58 404.94 165.77 C 391.28 182.85 378.15 200.37 364.68 217.60 C 329.89 262.71 294.95 307.70 260.22 352.85 C 269.07 363.52 277.27 374.69 286.10 385.37 C 298.38 401.05 310.71 416.69 323.09 432.30 C 339.61 453.39 356.26 474.38 372.81 495.45 C 383.87 509.46 394.91 523.49 405.97 537.50 C 417.96 552.70 429.91 567.94 441.95 583.11 C 456.89 602.09 471.77 621.12 486.85 640.00 L 466.71 640.00 C 459.80 631.48 453.13 622.77 446.26 614.21 C 442.33 609.15 438.37 604.11 434.35 599.13 C 430.67 594.29 426.85 589.56 423.08 584.79 C 417.11 577.10 411.03 569.49 405.00 561.84 C 396.80 551.33 388.49 540.91 380.26 530.43 C 372.70 520.82 365.13 511.23 357.55 501.63 C 352.30 494.97 347.08 488.28 341.79 481.65 C 336.09 474.33 330.29 467.07 324.57 459.77 C 317.51 450.86 310.52 441.90 303.46 433.00 C 297.89 425.92 292.32 418.84 286.73 411.78 C 278.16 401.37 270.50 390.19 261.48 380.18 C 257.62 375.50 254.17 370.29 249.97 366.01 C 243.79 374.09 237.48 382.08 231.34 390.21 C 231.42 381.13 231.39 372.05 231.36 362.97 C 231.38 345.85 231.41 328.73 231.36 311.61 C 231.39 296.98 231.40 282.35 231.36 267.72 C 231.41 178.48 231.37 89.24 231.38 0.00 Z" />
</g>
<g id="#3370f7ff">
<path fill="#3370f7" opacity="1.00" d=" M 169.00 0.00 L 231.38 0.00 C 231.37 89.24 231.41 178.48 231.36 267.72 C 227.84 271.08 223.54 273.76 220.93 277.96 C 219.46 280.08 217.60 281.92 215.45 283.35 C 211.94 285.49 209.65 289.01 206.97 292.03 C 203.95 296.00 199.32 298.49 196.70 302.78 C 194.69 306.03 191.10 307.77 188.60 310.59 C 185.21 313.88 183.01 318.25 179.21 321.13 C 175.37 324.03 172.35 327.81 169.01 331.24 C 168.99 220.82 169.01 110.41 169.00 0.00 Z" />
</g>
<g id="#7f82f0ff">
<path fill="#7f82f0" opacity="1.00" d=" M 364.68 217.60 C 378.15 200.37 391.28 182.85 404.94 165.77 C 422.16 165.58 439.39 165.86 456.61 165.68 C 404.10 230.11 353.79 296.28 303.09 362.13 C 303.35 363.06 303.85 363.89 304.58 364.60 C 301.75 366.23 300.59 369.81 297.50 370.97 C 297.17 371.70 296.87 372.46 296.61 373.23 C 296.00 373.30 295.39 373.40 294.79 373.52 C 294.62 375.84 293.09 377.66 291.57 379.28 C 291.04 379.02 290.52 378.75 290.00 378.49 C 289.57 381.22 289.99 385.37 286.10 385.37 C 277.27 374.69 269.07 363.52 260.22 352.85 C 294.95 307.70 329.89 262.71 364.68 217.60 Z" />
</g>
<g id="#3479ebff">
<path fill="#3479eb" opacity="1.00" d=" M 220.93 277.96 C 223.54 273.76 227.84 271.08 231.36 267.72 C 231.40 282.35 231.39 296.98 231.36 311.61 C 228.60 313.02 227.19 315.93 224.76 317.75 C 220.79 320.77 218.44 325.35 214.61 328.51 C 211.89 330.52 210.41 333.78 207.41 335.47 C 204.98 336.64 204.81 339.77 202.52 341.07 C 198.23 343.90 195.55 348.39 191.96 351.95 C 185.40 357.36 180.38 364.33 174.13 370.07 C 172.17 371.44 170.31 372.98 169.01 375.02 C 169.02 360.43 168.97 345.83 169.01 331.24 C 172.35 327.81 175.37 324.03 179.21 321.13 C 183.01 318.25 185.21 313.88 188.60 310.59 C 191.10 307.77 194.69 306.03 196.70 302.78 C 199.32 298.49 203.95 296.00 206.97 292.03 C 209.65 289.01 211.94 285.49 215.45 283.35 C 217.60 281.92 219.46 280.08 220.93 277.96 Z" />
</g>
<g id="#3584deff">
<path fill="#3584de" opacity="1.00" d=" M 224.76 317.75 C 227.19 315.93 228.60 313.02 231.36 311.61 C 231.41 328.73 231.38 345.85 231.36 362.97 C 229.33 364.37 227.34 365.87 225.81 367.83 C 223.32 370.99 219.88 373.24 217.62 376.61 C 211.32 382.63 205.70 389.33 199.58 395.54 C 196.82 397.44 194.41 399.74 192.38 402.40 C 188.66 406.03 185.06 409.78 181.56 413.62 C 178.91 416.62 175.53 418.90 173.13 422.13 C 172.07 423.58 170.55 424.52 169.02 425.39 C 169.00 408.60 168.99 391.81 169.01 375.02 C 170.31 372.98 172.17 371.44 174.13 370.07 C 180.38 364.33 185.40 357.36 191.96 351.95 C 195.55 348.39 198.23 343.90 202.52 341.07 C 204.81 339.77 204.98 336.64 207.41 335.47 C 210.41 333.78 211.89 330.52 214.61 328.51 C 218.44 325.35 220.79 320.77 224.76 317.75 Z" />
</g>
<g id="#3691cfff">
<path fill="#3691cf" opacity="1.00" d=" M 225.81 367.83 C 227.34 365.87 229.33 364.37 231.36 362.97 C 231.39 372.05 231.42 381.13 231.34 390.21 C 237.48 382.08 243.79 374.09 249.97 366.01 C 254.17 370.29 257.62 375.50 261.48 380.18 C 259.78 382.22 257.83 384.02 255.83 385.76 C 252.91 388.20 251.33 391.88 248.23 394.15 C 243.82 397.43 241.12 402.38 237.05 406.01 C 231.79 410.41 227.68 415.99 222.43 420.41 C 219.30 423.01 217.17 426.50 214.58 429.58 C 210.12 432.01 207.30 436.35 203.91 439.98 C 195.56 447.90 187.71 456.36 179.72 464.61 C 178.18 465.74 176.30 466.60 175.55 468.49 C 174.23 471.70 171.41 473.77 169.01 476.12 C 169.02 459.21 168.97 442.30 169.02 425.39 C 170.55 424.52 172.07 423.58 173.13 422.13 C 175.53 418.90 178.91 416.62 181.56 413.62 C 185.06 409.78 188.66 406.03 192.38 402.40 C 194.41 399.74 196.82 397.44 199.58 395.54 C 205.70 389.33 211.32 382.63 217.62 376.61 C 219.88 373.24 223.32 370.99 225.81 367.83 Z" />
</g>
<g id="#8678efff">
<path fill="#8678ef" opacity="1.00" d=" M 304.58 364.60 C 316.53 379.66 328.42 394.77 340.29 409.89 C 338.11 412.86 337.73 416.66 335.84 419.75 C 334.00 421.45 331.51 422.20 329.37 423.44 C 330.28 424.22 332.23 424.42 332.18 425.93 C 331.45 427.52 330.25 425.97 329.21 425.69 C 328.63 426.16 328.05 426.68 327.72 427.36 C 327.88 427.72 328.19 428.43 328.35 428.79 C 327.15 429.92 325.61 430.97 324.13 429.64 C 323.74 430.51 323.40 431.39 323.09 432.30 C 310.71 416.69 298.38 401.05 286.10 385.37 C 289.99 385.37 289.57 381.22 290.00 378.49 C 290.52 378.75 291.04 379.02 291.57 379.28 C 293.09 377.66 294.62 375.84 294.79 373.52 C 295.39 373.40 296.00 373.30 296.61 373.23 C 296.87 372.46 297.17 371.70 297.50 370.97 C 300.59 369.81 301.75 366.23 304.58 364.60 Z" />
</g>
<g id="#379bc3ff">
<path fill="#379bc3" opacity="1.00" d=" M 261.48 380.18 C 270.50 390.19 278.16 401.37 286.73 411.78 C 285.01 413.38 283.25 414.95 281.73 416.73 C 277.27 421.96 271.95 426.34 267.21 431.29 C 262.68 425.99 258.79 419.88 253.94 415.04 C 243.41 427.84 233.08 440.80 222.64 453.67 C 216.54 460.26 211.31 467.61 205.60 474.56 C 193.41 489.90 181.23 505.26 169.02 520.59 C 168.98 505.76 169.01 490.94 169.01 476.12 C 171.41 473.77 174.23 471.70 175.55 468.49 C 176.30 466.60 178.18 465.74 179.72 464.61 C 187.71 456.36 195.56 447.90 203.91 439.98 C 207.30 436.35 210.12 432.01 214.58 429.58 C 217.17 426.50 219.30 423.01 222.43 420.41 C 227.68 415.99 231.79 410.41 237.05 406.01 C 241.12 402.38 243.82 397.43 248.23 394.15 C 251.33 391.88 252.91 388.20 255.83 385.76 C 257.83 384.02 259.78 382.22 261.48 380.18 Z" />
</g>
<g id="#8e6deeff">
<path fill="#8e6dee" opacity="1.00" d=" M 340.29 409.89 C 357.44 431.56 374.51 453.29 391.62 474.98 C 390.55 475.50 389.49 476.07 388.58 476.85 C 389.23 481.51 382.62 482.02 381.54 485.98 C 381.32 487.95 379.13 488.57 378.29 490.20 C 376.95 492.41 374.80 493.88 372.81 495.45 C 356.26 474.38 339.61 453.39 323.09 432.30 C 323.40 431.39 323.74 430.51 324.13 429.64 C 325.61 430.97 327.15 429.92 328.35 428.79 C 328.19 428.43 327.88 427.72 327.72 427.36 C 328.05 426.68 328.63 426.16 329.21 425.69 C 330.25 425.97 331.45 427.52 332.18 425.93 C 332.23 424.42 330.28 424.22 329.37 423.44 C 331.51 422.20 334.00 421.45 335.84 419.75 C 337.73 416.66 338.11 412.86 340.29 409.89 Z" />
</g>
<g id="#39aab2ff">
<path fill="#39aab2" opacity="1.00" d=" M 286.73 411.78 C 292.32 418.84 297.89 425.92 303.46 433.00 C 302.00 436.81 298.30 438.76 295.89 441.82 C 292.77 446.31 287.69 448.92 284.70 453.54 C 278.90 446.10 272.99 438.74 267.21 431.29 C 271.95 426.34 277.27 421.96 281.73 416.73 C 283.25 414.95 285.01 413.38 286.73 411.78 Z" />
</g>
<g id="#3bac98ff">
<path fill="#3bac98" opacity="1.00" d=" M 303.46 433.00 C 310.52 441.90 317.51 450.86 324.57 459.77 C 323.72 461.43 323.06 463.29 321.66 464.60 C 316.07 469.53 311.90 475.89 305.87 480.35 C 298.80 471.43 291.76 462.47 284.70 453.54 C 287.69 448.92 292.77 446.31 295.89 441.82 C 298.30 438.76 302.00 436.81 303.46 433.00 Z" />
</g>
<g id="#3db788ff">
<path fill="#3db788" opacity="1.00" d=" M 324.57 459.77 C 330.29 467.07 336.09 474.33 341.79 481.65 C 338.53 482.41 336.96 485.55 334.65 487.63 C 330.14 491.71 326.36 496.52 321.52 500.25 C 316.31 493.61 311.07 487.00 305.87 480.35 C 311.90 475.89 316.07 469.53 321.66 464.60 C 323.06 463.29 323.72 461.43 324.57 459.77 Z" />
</g>
<g id="#9662ecff">
<path fill="#9662ec" opacity="1.00" d=" M 391.62 474.98 C 402.85 489.21 414.06 503.45 425.28 517.68 C 421.53 518.27 421.02 522.48 417.94 524.11 C 416.56 524.78 416.69 526.37 416.34 527.63 C 414.95 528.46 412.92 528.44 412.12 530.05 C 410.43 532.81 408.81 535.74 405.97 537.50 C 394.91 523.49 383.87 509.46 372.81 495.45 C 374.80 493.88 376.95 492.41 378.29 490.20 C 379.13 488.57 381.32 487.95 381.54 485.98 C 382.62 482.02 389.23 481.51 388.58 476.85 C 389.49 476.07 390.55 475.50 391.62 474.98 Z" />
</g>
<g id="#3fc07aff">
<path fill="#3fc07a" opacity="1.00" d=" M 334.65 487.63 C 336.96 485.55 338.53 482.41 341.79 481.65 C 347.08 488.28 352.30 494.97 357.55 501.63 C 356.40 502.04 355.53 502.88 354.88 503.89 C 353.53 505.88 351.17 506.85 349.76 508.78 C 346.24 513.22 342.64 517.78 337.73 520.77 C 332.29 513.96 326.94 507.08 321.52 500.25 C 326.36 496.52 330.14 491.71 334.65 487.63 Z" />
</g>
<g id="#8a73eeff">
<path fill="#8a73ee" opacity="1.00" d=" M 169.13 559.93 C 189.75 533.61 210.87 507.66 231.37 481.26 C 231.40 534.17 231.36 587.09 231.39 640.00 L 169.00 640.00 C 169.09 613.31 168.82 586.60 169.13 559.93 Z" />
</g>
<g id="#41cb6aff">
<path fill="#41cb6a" opacity="1.00" d=" M 354.88 503.89 C 355.53 502.88 356.40 502.04 357.55 501.63 C 365.13 511.23 372.70 520.82 380.26 530.43 C 377.04 532.39 374.38 535.07 372.09 538.04 C 368.74 542.41 363.87 545.22 360.28 549.36 C 352.72 539.87 345.23 530.32 337.73 520.77 C 342.64 517.78 346.24 513.22 349.76 508.78 C 351.17 506.85 353.53 505.88 354.88 503.89 Z" />
</g>
<g id="#9c58ebff">
<path fill="#9c58eb" opacity="1.00" d=" M 417.94 524.11 C 421.02 522.48 421.53 518.27 425.28 517.68 C 437.37 533.00 449.43 548.34 461.52 563.65 C 458.46 565.20 457.17 568.55 454.60 570.68 C 453.63 571.33 453.71 572.54 453.39 573.54 C 452.28 573.67 450.77 572.88 450.04 574.06 C 449.11 575.01 450.22 576.10 450.45 577.10 C 448.80 577.52 447.10 577.28 445.44 577.16 C 446.75 578.61 446.65 580.61 445.78 582.27 C 444.54 582.72 443.23 582.88 441.95 583.11 C 429.91 567.94 417.96 552.70 405.97 537.50 C 408.81 535.74 410.43 532.81 412.12 530.05 C 412.92 528.44 414.95 528.46 416.34 527.63 C 416.69 526.37 416.56 524.78 417.94 524.11 Z" />
</g>
<g id="#45d758ff">
<path fill="#45d758" opacity="1.00" d=" M 372.09 538.04 C 374.38 535.07 377.04 532.39 380.26 530.43 C 388.49 540.91 396.80 551.33 405.00 561.84 C 399.47 563.53 396.91 569.23 392.63 572.69 C 389.55 574.93 387.49 578.16 385.40 581.28 C 377.02 570.64 368.62 560.03 360.28 549.36 C 363.87 545.22 368.74 542.41 372.09 538.04 Z" />
</g>
<g id="#4ae349ff">
<path fill="#4ae349" opacity="1.00" d=" M 392.63 572.69 C 396.91 569.23 399.47 563.53 405.00 561.84 C 411.03 569.49 417.11 577.10 423.08 584.79 C 420.71 588.20 416.61 590.01 414.46 593.61 C 413.43 595.30 412.63 597.39 410.75 598.32 C 410.38 598.13 409.63 597.75 409.25 597.56 C 408.83 600.80 405.63 602.26 403.71 604.53 C 397.60 596.79 391.52 589.01 385.40 581.28 C 387.49 578.16 389.55 574.93 392.63 572.69 Z" />
</g>
<g id="#a54ce9ff">
<path fill="#a54ce9" opacity="1.00" d=" M 461.52 563.65 C 481.60 589.10 501.60 614.61 521.76 640.00 L 486.85 640.00 C 471.77 621.12 456.89 602.09 441.95 583.11 C 443.23 582.88 444.54 582.72 445.78 582.27 C 446.65 580.61 446.75 578.61 445.44 577.16 C 447.10 577.28 448.80 577.52 450.45 577.10 C 450.22 576.10 449.11 575.01 450.04 574.06 C 450.77 572.88 452.28 573.67 453.39 573.54 C 453.71 572.54 453.63 571.33 454.60 570.68 C 457.17 568.55 458.46 565.20 461.52 563.65 Z" />
</g>
<g id="#59eb4bff">
<path fill="#59eb4b" opacity="1.00" d=" M 414.46 593.61 C 416.61 590.01 420.71 588.20 423.08 584.79 C 426.85 589.56 430.67 594.29 434.35 599.13 C 430.86 601.72 427.88 604.89 424.77 607.90 C 421.92 611.87 418.44 615.32 414.59 618.32 C 410.96 613.72 407.37 609.10 403.71 604.53 C 405.63 602.26 408.83 600.80 409.25 597.56 C 409.63 597.75 410.38 598.13 410.75 598.32 C 412.63 597.39 413.43 595.30 414.46 593.61 Z" />
</g>
<g id="#5ef145ff">
<path fill="#5ef145" opacity="1.00" d=" M 424.77 607.90 C 427.88 604.89 430.86 601.72 434.35 599.13 C 438.37 604.11 442.33 609.15 446.26 614.21 C 439.17 620.15 434.10 628.11 426.80 633.79 C 422.70 628.65 418.68 623.46 414.59 618.32 C 418.44 615.32 421.92 611.87 424.77 607.90 Z" />
</g>
<g id="#62f83dff">
<path fill="#62f83d" opacity="1.00" d=" M 426.80 633.79 C 434.10 628.11 439.17 620.15 446.26 614.21 C 453.13 622.77 459.80 631.48 466.71 640.00 L 431.73 640.00 C 430.02 637.97 428.45 635.85 426.80 633.79 Z" />
</g>
</svg>
